<svg viewBox="0 0 120 126" fill="none" xmlns="http://www.w3.org/2000/svg">
  <path fill-rule="evenodd" clip-rule="evenodd" d="M14.0927 9.53466C14.0927 4.53466 17.5927 2.23466 21.0927 4.73466C25.0927 7.53466 31.5927 12.1347 40.0927 13.5347C51.0927 15.3347 57.0927 12.9347 67.0927 14.5347C72.5927 15.4347 80.0927 19.5347 83.0927 21.5347C86.0927 23.5347 87.5927 25.5347 87.5927 30.5347V110.535C87.5927 115.535 84.0927 117.835 80.5927 115.335C76.5927 112.535 70.0927 107.935 61.5927 106.535C50.5927 104.735 44.5927 107.135 34.5927 105.535C29.0927 104.635 21.5927 100.535 18.5927 98.5347C15.5927 96.5347 14.0927 94.5347 14.0927 89.5347V9.53466Z" fill="#000"/>
  <path d="M20.6927 21.9347C29.2927 28.7347 36.8927 31.1347 52.0927 32.3347V110.535C50.2927 114.335 50.2927 114.335 48.4927 112.935C36.4927 103.735 29.8927 102.135 20.6927 101.535V21.9347Z" fill="#fff"/>
  <path d="M67.8927 19.5347C58.8927 12.3347 51.2927 9.93466 36.0927 8.73466V101.535C37.8927 105.335 37.8927 105.335 39.6927 103.935C51.6927 94.7347 58.2927 93.1347 67.8927 92.5347V19.5347Z" fill="#fff" opacity="0.7"/>
  <style>
    @media (prefers-color-scheme: dark) {
      path:first-of-type { fill: #fff; }
      path:nth-of-type(2) { fill: #191919; }
      path:nth-of-type(3) { fill: #191919; }
    }
  </style>
</svg>
